<svg xmlns="http://www.w3.org/2000/svg" xml:space="preserve" viewBox="0 0 64 64"><path fill="#8CAEDC" stroke="#4766B0" stroke-linecap="round" stroke-linejoin="round" stroke-miterlimit="10" stroke-width="3" d="m37.004 54.26 2.166 2.166c4.765 4.765 12.491 4.765 17.256 0s4.765-12.491 0-17.256l-2.166-2.166L26.996 9.74 24.83 7.574c-4.765-4.765-12.491-4.765-17.256 0-4.765 4.765-4.765 12.491 0 17.256l2.166 2.166L37.004 54.26z"/><path fill="#5981C1" stroke="#4766B0" stroke-linecap="round" stroke-linejoin="round" stroke-miterlimit="10" stroke-width="3" d="M7.574 56.426h0c-4.765-4.765-4.765-12.491 0-17.256L39.17 7.574c4.765-4.765 12.491-4.765 17.256 0h0c4.765 4.765 4.765 12.491 0 17.256L24.83 56.426c-4.765 4.766-12.491 4.766-17.256 0z"/><g fill="#4766B0"><circle cx="31.939" cy="24" r="1.679"/><circle cx="35.97" cy="28.03" r="1.679"/><circle cx="40" cy="32.061" r="1.679"/></g><g fill="#4766B0"><circle cx="27.969" cy="27.969" r="1.679"/><circle cx="32" cy="32" r="1.679"/><circle cx="36.031" cy="36.031" r="1.679"/></g><g fill="#4766B0"><circle cx="24" cy="31.939" r="1.679"/><circle cx="28.03" cy="35.97" r="1.679"/><circle cx="32.061" cy="40" r="1.679"/></g></svg>