<?xml version="1.0" standalone="no"?>
<!DOCTYPE svg PUBLIC "-//W3C//DTD SVG 20010904//EN"
 "http://www.w3.org/TR/2001/REC-SVG-20010904/DTD/svg10.dtd">
<svg version="1.0" xmlns="http://www.w3.org/2000/svg"
 width="1172.000000pt" height="1280.000000pt" viewBox="0 0 1172.000000 1280.000000"
 preserveAspectRatio="xMidYMid meet">
<g transform="translate(0.000000,1280.000000) scale(0.100000,-0.100000)"
fill="#000000" stroke="none">
<path d="M5695 12769 c-365 -41 -719 -235 -951 -523 -283 -351 -384 -802 -279
-1243 26 -111 81 -263 95 -263 4 0 38 14 75 30 54 24 66 34 61 48 -3 9 -23 69
-45 132 -26 76 -44 116 -55 118 -19 4 -21 16 -3 31 11 8 12 25 4 78 -16 117
-3 354 26 463 98 374 325 664 654 832 186 96 364 138 586 138 336 0 629 -117
869 -348 118 -113 197 -219 263 -356 102 -211 129 -327 130 -578 0 -103 4
-190 8 -194 12 -12 8 -24 -8 -24 -14 0 -23 -21 -28 -70 -2 -20 4 -26 36 -37
21 -7 56 -16 76 -19 38 -6 38 -6 49 37 40 163 42 458 4 625 -168 728 -832
1204 -1567 1123z"/>
<path d="M6990 10763 c-19 -38 -36 -72 -38 -76 -2 -4 38 -6 90 -5 l93 3 27 55
c43 88 42 90 -55 90 l-83 0 -34 -67z"/>
<path d="M4815 10501 c-65 -18 -85 -28 -85 -40 0 -31 252 -271 284 -271 22 0
146 67 146 79 0 4 -28 28 -62 53 -35 26 -97 81 -138 122 -41 42 -77 76 -80 75
-3 0 -32 -8 -65 -18z"/>
<path d="M6930 10479 c-156 -29 -161 -31 -224 -86 -131 -116 -281 -202 -449
-258 -150 -50 -272 -67 -457 -63 l-155 3 -98 -47 c-53 -26 -97 -51 -97 -56 0
-10 111 -37 220 -53 99 -15 382 -6 480 16 187 41 374 122 526 227 85 58 299
262 323 307 13 24 8 25 -69 10z"/>
<path d="M24 10368 c12 -60 94 -212 156 -290 111 -138 285 -253 425 -279 71
-13 283 -7 525 15 209 20 694 61 1535 131 363 30 706 59 762 64 105 10 178 1
231 -28 46 -24 104 -85 130 -135 26 -49 27 -57 28 -226 1 -187 12 -257 58
-370 63 -155 210 -314 363 -393 150 -77 289 -107 503 -107 150 0 309 -18 416
-45 159 -42 271 -111 374 -232 25 -29 48 -53 53 -53 9 0 10 884 0 894 -4 3
-17 -21 -30 -54 -115 -308 -478 -423 -763 -240 -99 63 -185 191 -211 310 -16
74 -6 204 25 320 57 212 21 387 -113 548 -56 68 -163 143 -248 175 l-58 22
-2084 3 -2084 2 7 -32z"/>
<path d="M7520 10385 c-101 -28 -181 -75 -261 -155 -163 -163 -204 -339 -139
-610 17 -72 30 -153 30 -191 0 -205 -137 -391 -345 -469 -82 -30 -201 -37
-282 -17 -156 41 -266 130 -346 283 l-46 89 -1 -447 c0 -247 3 -448 8 -447 4
0 24 22 45 49 141 187 406 279 797 280 198 0 335 27 467 90 174 82 304 212
384 385 53 112 61 156 68 370 8 225 16 257 85 328 77 77 170 102 325 87 53 -5
204 -19 336 -30 769 -65 1472 -125 1938 -165 477 -42 585 -33 760 57 121 62
246 190 310 316 26 51 47 101 47 112 0 16 -13 18 -152 24 -84 3 -614 15 -1178
26 -564 11 -1248 25 -1520 30 -1072 21 -1270 22 -1330 5z"/>
<path d="M3245 9889 c-115 -10 -453 -39 -750 -64 -1187 -100 -1601 -135 -1633
-141 -30 -5 -31 -7 -21 -27 7 -12 55 -65 108 -117 108 -107 192 -156 316 -186
99 -23 160 -17 775 70 294 41 744 105 999 140 255 36 465 67 467 69 19 19 133
224 130 234 -7 16 -101 43 -145 42 -20 -1 -130 -10 -246 -20z"/>
<path d="M8140 9894 c-30 -8 -58 -18 -62 -22 -12 -12 129 -236 154 -244 13 -5
140 -23 283 -43 143 -19 357 -48 475 -64 1321 -184 1297 -181 1355 -181 123 0
291 72 400 172 68 62 149 157 142 165 -8 7 -475 49 -1722 153 -396 33 -767 65
-825 70 -129 12 -132 12 -200 -6z"/>
<path d="M5436 9790 c-61 -6 -73 -11 -98 -39 -32 -36 -38 -93 -13 -141 31 -60
29 -60 537 -60 447 0 464 1 496 20 40 25 66 81 58 125 -8 39 -51 82 -97 95
-38 11 -774 11 -883 0z"/>
<path d="M3673 9705 c-80 -124 -112 -233 -120 -396 -7 -135 11 -242 58 -356
106 -254 294 -432 544 -514 67 -22 87 -23 535 -29 330 -5 477 -11 505 -20 112
-35 233 -121 318 -225 29 -36 53 -58 55 -50 6 28 -60 199 -102 264 -49 77
-105 126 -191 169 -125 63 -212 78 -621 102 -313 18 -486 85 -668 259 -86 83
-146 166 -195 273 -59 127 -74 198 -80 398 l-6 175 -32 -50z"/>
<path d="M8010 9606 c0 -229 -43 -384 -151 -545 -94 -142 -226 -254 -382 -326
-135 -62 -236 -80 -547 -95 -113 -5 -239 -16 -280 -24 -202 -40 -334 -122
-415 -260 -30 -51 -85 -199 -85 -229 0 -11 34 17 98 81 98 99 178 152 277 182
28 9 181 15 505 20 447 6 468 7 535 29 146 48 248 114 360 233 44 47 97 114
118 149 130 221 161 477 86 703 -27 84 -97 216 -114 216 -3 0 -5 -60 -5 -134z"/>
<path d="M8254 9508 c-3 -4 -3 -16 0 -26 3 -9 10 -69 16 -132 6 -63 14 -118
18 -122 4 -4 147 -36 317 -72 171 -36 450 -95 620 -132 274 -59 323 -67 425
-68 135 -1 215 19 318 81 69 41 219 190 206 203 -8 8 -406 66 -1497 218 -230
32 -420 55 -423 50z"/>
<path d="M3370 9503 c-14 -2 -155 -22 -315 -44 -781 -107 -1501 -211 -1509
-219 -13 -13 65 -101 137 -156 124 -94 269 -140 412 -131 63 4 1170 228 1310
265 l30 8 12 114 c6 63 14 127 17 143 5 26 4 27 -32 26 -20 -1 -48 -4 -62 -6z"/>
<path d="M5690 8046 c0 -767 3 -1397 8 -1399 10 -7 304 63 320 76 9 7 12 292
12 1363 l0 1354 -170 0 -170 0 0 -1394z"/>
<path d="M3415 9114 c-6 -2 -222 -49 -480 -103 -643 -136 -675 -143 -675 -152
0 -15 114 -110 172 -145 164 -95 312 -112 503 -56 297 86 589 180 593 190 6
18 -80 272 -92 271 -6 0 -16 -2 -21 -5z"/>
<path d="M8266 9108 c-2 -7 -22 -69 -44 -138 -22 -69 -39 -127 -37 -128 2 -2
84 -28 182 -58 561 -172 585 -177 713 -150 105 22 240 91 320 164 36 33 63 62
60 65 -5 5 -473 106 -935 202 -121 25 -228 48 -238 51 -9 3 -19 0 -21 -8z"/>
<path d="M3335 8669 c-126 -38 -273 -83 -325 -101 l-94 -31 49 -44 c67 -59
212 -128 307 -147 161 -33 228 -20 472 93 l89 42 -90 92 c-49 50 -102 109
-117 130 -16 20 -36 37 -45 36 -9 0 -119 -31 -246 -70z"/>
<path d="M8094 8703 c-15 -21 -68 -80 -117 -130 l-90 -92 109 -52 c184 -86
244 -102 349 -96 152 9 303 70 416 166 l43 38 -94 31 c-143 47 -562 172 -575
172 -7 0 -25 -17 -41 -37z"/>
<path d="M3795 8346 c-77 -34 -153 -69 -169 -78 l-29 -15 52 -42 c62 -49 160
-104 220 -126 88 -31 180 -37 591 -39 370 -3 427 -5 530 -24 129 -24 246 -60
335 -104 69 -36 171 -130 217 -202 30 -46 33 -49 36 -26 1 14 -9 70 -22 125
-59 233 -184 395 -354 458 -54 20 -83 22 -497 28 -487 7 -542 13 -694 78 -40
17 -74 31 -75 30 0 0 -64 -29 -141 -63z"/>
<path d="M7697 8378 c-160 -69 -176 -71 -677 -77 -442 -6 -457 -7 -509 -29
-197 -83 -341 -301 -366 -555 l-6 -62 32 54 c99 165 270 261 559 313 102 18
162 21 525 24 226 1 443 8 484 13 114 17 237 76 346 165 22 18 27 28 19 36
-11 11 -321 151 -332 149 -4 -1 -38 -14 -75 -31z"/>
<path d="M4495 7864 c-362 -37 -637 -172 -727 -356 -106 -217 -66 -433 115
-624 130 -138 325 -253 630 -373 146 -57 465 -161 494 -161 8 0 52 23 99 51
96 58 287 143 414 184 47 15 89 31 94 36 5 4 -9 12 -30 18 -548 141 -685 178
-807 215 -354 111 -615 238 -691 339 -64 85 -57 197 17 271 62 61 126 88 223
94 100 5 132 -7 259 -103 160 -120 287 -166 517 -187 145 -13 190 -3 244 53
36 38 30 42 -82 59 -114 17 -215 43 -271 72 -90 44 -75 48 181 48 l236 0 0 38
c-1 140 -175 264 -435 308 -87 15 -398 26 -480 18z m519 -155 c49 -58 31 -79
-72 -79 -64 0 -111 18 -140 55 -38 48 -31 52 100 54 85 1 87 0 112 -30z"/>
<path d="M6828 7859 c-107 -13 -262 -54 -333 -88 -106 -52 -195 -164 -195
-244 l0 -29 234 4 c129 1 237 0 241 -4 27 -27 -84 -72 -268 -109 -83 -16 -153
-32 -156 -34 -9 -10 44 -58 84 -76 46 -21 104 -23 230 -8 192 24 348 84 460
178 92 77 147 103 232 109 159 10 299 -84 319 -214 29 -194 -258 -359 -971
-558 -110 -30 -288 -76 -395 -102 -429 -102 -720 -178 -825 -216 -381 -139
-630 -332 -767 -595 -82 -157 -112 -281 -111 -458 2 -256 85 -465 259 -645
130 -135 347 -280 396 -265 12 4 56 28 97 52 155 92 289 152 531 237 58 20
111 40 117 44 8 5 12 174 14 612 l3 605 -30 -1 c-34 -2 -264 -62 -285 -74 -12
-8 -13 -100 -10 -625 3 -518 1 -615 -10 -615 -24 0 -247 107 -327 157 -91 56
-218 175 -263 244 -85 134 -94 347 -20 504 62 132 194 251 382 343 153 75 239
102 682 211 717 178 1013 274 1321 427 156 78 248 138 334 218 164 153 233
330 202 514 -39 232 -224 388 -552 467 -179 42 -426 56 -620 34z m73 -135 c41
-21 34 -44 -21 -71 -54 -28 -131 -30 -180 -5 -50 24 -44 43 20 69 65 26 139
29 181 7z"/>
<path d="M6623 6220 c-12 -5 -140 -39 -285 -75 -145 -37 -265 -69 -267 -71 -2
-2 11 -9 30 -16 18 -6 85 -37 149 -68 303 -150 440 -330 440 -581 0 -155 -50
-268 -169 -382 -142 -135 -302 -221 -626 -337 -344 -123 -547 -234 -704 -385
-195 -187 -281 -381 -281 -635 0 -132 16 -219 58 -319 66 -156 210 -323 376
-436 l87 -60 32 19 c140 84 281 161 387 210 69 32 131 64 139 72 11 10 15 105
19 512 3 275 8 506 13 513 10 16 147 -62 240 -137 182 -146 251 -393 164 -589
-55 -126 -162 -244 -305 -338 -41 -27 -165 -93 -275 -147 -110 -54 -234 -120
-276 -147 -353 -233 -488 -628 -337 -990 65 -158 167 -276 289 -337 68 -34
109 -45 109 -28 0 4 -34 47 -75 95 -88 103 -114 146 -149 244 -102 289 -20
569 219 738 79 56 139 86 320 157 300 119 439 201 588 346 126 123 200 239
247 387 34 107 39 301 11 420 -40 165 -134 327 -269 459 l-60 58 -98 -40 c-55
-22 -191 -71 -304 -110 -113 -39 -236 -84 -275 -100 l-70 -29 -3 -516 c-2
-437 -4 -517 -16 -517 -30 0 -174 107 -257 189 -101 102 -159 205 -179 320
-11 61 -11 83 3 152 52 267 247 422 732 584 379 127 532 200 725 346 170 128
280 278 346 471 35 105 47 203 41 345 -6 154 -30 250 -93 378 -56 114 -120
199 -228 303 -88 85 -109 94 -163 72z"/>
<path d="M6070 2649 c-102 -44 -219 -94 -260 -113 l-75 -33 -3 -134 c-7 -274
22 -1364 49 -1819 17 -304 52 -532 79 -515 36 22 62 223 84 645 15 270 43
1255 49 1702 1 114 6 210 10 214 11 11 116 -64 183 -130 115 -116 167 -241
167 -406 1 -185 -57 -341 -179 -485 -37 -44 -74 -89 -83 -99 -15 -18 -15 -19
19 -12 146 27 301 182 380 379 93 234 76 460 -52 685 -45 78 -151 203 -171
201 -7 -1 -95 -37 -197 -80z"/>
</g>
</svg>
